<svg id="svg" version="1.1" xmlns="http://www.w3.org/2000/svg" style="display: block;" viewBox="0 0 466 466"><path d="M0 0 C153.78 0 307.56 0 466 0 C466 153.78 466 307.56 466 466 C312.22 466 158.44 466 0 466 C0 312.22 0 158.44 0 0 Z " transform="translate(0,0)" style="fill: #040404;"/><path d="M0 0 C153.78 0 307.56 0 466 0 C466 153.78 466 307.56 466 466 C312.22 466 158.44 466 0 466 C0 312.22 0 158.44 0 0 Z M11 83 C10.25888524 84.58011261 9.57769921 86.18887692 8.9375 87.8125 C8.59589844 88.66457031 8.25429687 89.51664063 7.90234375 90.39453125 C6.40048276 94.73107359 5.87556007 98.72077136 5.90234375 103.30078125 C5.90556641 104.27724609 5.90878906 105.25371094 5.91210938 106.25976562 C5.92048828 107.26716797 5.92886719 108.27457031 5.9375 109.3125 C5.94201172 110.33923828 5.94652344 111.36597656 5.95117188 112.42382812 C5.96291816 114.94927882 5.97934435 117.47460905 6 120 C12.2904377 120.10523848 12.2904377 120.10523848 18.5 119.25 C19.33789062 119.06953125 20.17578125 118.8890625 21.0390625 118.703125 C25.35569425 117.67806733 29.65175677 116.57230449 33.94824219 115.46630859 C39.11079761 114.16037056 44.26772287 113.21475301 49.546875 112.4921875 C52.02516263 111.99495145 53.75703722 111.12806543 56 110 C57.71876456 109.63459336 59.45015112 109.32573468 61.1875 109.0625 C67.29588531 108.01881562 72.82688675 106.18399748 78.6171875 104.0234375 C79.52726562 103.68570313 80.43734375 103.34796875 81.375 103 C82.18710938 102.690625 82.99921875 102.38125 83.8359375 102.0625 C88.49213976 100.49893578 93.26135425 99.29235793 98 98 C98 109.22 98 120.44 98 132 C82.17930298 131.04184511 82.17930298 131.04184511 75.3828125 130.62695312 C70.7637389 130.34499251 66.1446434 130.0634358 61.52539062 129.78442383 C57.79702238 129.55919603 54.06877592 129.33204065 50.34060287 129.10360527 C48.92545534 129.01722434 47.51026678 128.93151245 46.09503555 128.84651375 C33.58466962 128.09438924 33.58466962 128.09438924 28.05029297 127.43920898 C21.05839247 126.83114416 14.01829149 127 7 127 C7 159.01 7 191.02 7 224 C21.85 224 36.7 224 52 224 C52 229.61 52 235.22 52 241 C37.15 241 22.3 241 7 241 C7 282.91 7 324.82 7 368 C27.37162486 365.55469731 27.37162486 365.55469731 47.58886719 362.17822266 C54.12504657 360.92416994 60.69851677 359.99131947 67.29150391 359.09008789 C73.89209501 358.18380911 80.41844843 357.09692526 87 356 C87 366.89 87 377.78 87 389 C81.06 387.515 81.06 387.515 75 386 C71.51571651 385.38423208 68.06146374 384.8092497 64.5625 384.3125 C63.70462891 384.18294922 62.84675781 384.05339844 61.96289062 383.91992188 C57.94606961 383.33186675 54.0721856 382.82440267 50 383 C50 382.34 50 381.68 50 381 C49.43716309 380.93006836 48.87432617 380.86013672 48.29443359 380.78808594 C37.91582096 379.47251694 27.97749525 377.97834577 17.9765625 374.8515625 C13.97041235 373.70544605 10.14894718 373.28613429 6 373 C5.36905697 392.06193183 5.36905697 392.06193183 12.828125 409.2421875 C14 411 14 411 15.25 414.5 C19.31220575 422.6244115 27.74083705 428.19962397 36.18359375 431.08984375 C39.44388203 432.11118267 42.70877141 433.08361871 46 434 C46.58424909 434.17962278 47.16849818 434.35924557 47.77045178 434.54431146 C50.76343739 435.15603595 53.60552572 435.12401599 56.6610527 435.12304783 C57.33257569 435.12420167 58.00409867 435.12535552 58.69597083 435.12654433 C60.95625382 435.12920065 63.21646622 435.1246969 65.47674561 435.12025452 C67.10949414 435.12069042 68.74224261 435.12156568 70.3749907 435.12284368 C74.86958386 435.1250849 79.36415329 435.12107243 83.85874343 435.11606562 C88.70261749 435.11175598 93.54649016 435.11320791 98.3903656 435.1139679 C106.78535022 435.1144928 115.18032708 435.11134945 123.57530975 435.10573006 C135.7131167 435.09761058 147.8509199 435.09499938 159.98872927 435.09374207 C179.68047659 435.09155225 199.37221977 435.08489407 219.06396484 435.07543945 C238.19514953 435.06626351 257.32633309 435.05918357 276.45751953 435.05493164 C277.63633189 435.05466892 278.81514425 435.05440619 280.0296782 435.05413551 C285.9433038 435.05283049 291.85692941 435.05156678 297.77055502 435.05032361 C346.84703954 435.03995319 395.92351957 435.02233679 445 435 C444.8865625 433.74058594 444.773125 432.48117187 444.65625 431.18359375 C444.59244141 430.47517334 444.52863281 429.76675293 444.46289062 429.03686523 C443.70999455 425.72388426 441.54087712 424.09622362 439 422 C438.67 421.67 438.34 421.34 438 421 C402.90307231 420.85584104 402.90307231 420.85584104 367.8125 421.4375 C367.05024109 421.45714813 366.28798218 421.47679626 365.50262451 421.49703979 C355.96785656 421.74932008 346.52855878 422.31938866 337 423 C337 411.78 337 400.56 337 389 C342.28 389 347.56 389 353 389 C354.32 388.67 355.64 388.34 357 388 C359.80325327 387.87081196 362.58613789 387.79051756 365.390625 387.75390625 C367.13224671 387.72229897 368.87386439 387.69046928 370.61547852 387.65844727 C371.53418732 387.64306915 372.45289612 387.62769104 373.39944458 387.61184692 C388.91200235 387.34330382 404.41578839 386.91996185 419.91369629 386.1869812 C421.67761821 386.10408524 423.44170325 386.02458931 425.20593262 385.94851685 C427.6600162 385.84142924 430.11312661 385.72165904 432.56640625 385.59765625 C433.29459061 385.56740356 434.02277496 385.53715088 434.77302551 385.50598145 C438.83336711 385.37558655 438.83336711 385.37558655 442 383 C442 361.88 442 340.76 442 319 C437.71 319.33 433.42 319.66 429 320 C426.58347086 320.14809468 424.16683448 320.29447477 421.75 320.4375 C417.06232176 320.76418554 412.70003451 321.37950709 408.15234375 322.53125 C405.70435508 323.06438728 403.3084699 323.29231157 400.8125 323.5 C394.33461646 324.08708929 388.8179907 326.43996994 382.83984375 328.8671875 C379.7426413 330.10266028 376.62262805 331.26789373 373.5 332.4375 C368.57048895 334.32231305 363.88420856 336.4516691 359.203125 338.8828125 C357.30377283 339.84595917 355.34278494 340.68574416 353.375 341.5 C349.31803564 343.30309527 345.70311245 345.5665261 342 348 C343.55820347 344.76197717 345.34229131 341.70738522 347.1875 338.625 C354.31538884 327.824858 354.31538884 327.824858 358 316 C359.09054687 316.02320313 360.18109375 316.04640625 361.3046875 316.0703125 C369.89123487 316.19543874 378.24490871 315.91364925 386.76660156 314.84985352 C393.20828385 314.05322025 399.65239522 313.53894664 406.125 313.0625 C415.63001412 312.35011411 425.04936503 311.3034382 434.49536133 310.03540039 C441.29790194 309.14381354 448.05196968 308.57576588 454.9140625 308.46655273 C459.14841715 308.33342066 459.82032507 308.17967493 463 305 C463 299.39 463 293.78 463 288 C458.38 288 453.76 288 449 288 C449 288.66 449 289.32 449 290 C442.40434454 290.76503709 435.80974223 291.37259771 429.19140625 291.90234375 C427.12432638 292.07199076 425.05726977 292.24192133 422.99023438 292.41210938 C419.77389283 292.67586459 416.55745182 292.93790356 413.34057617 293.19506836 C410.20705753 293.4463151 407.07422228 293.70500068 403.94140625 293.96484375 C402.99318497 294.03887924 402.04496368 294.11291473 401.06800842 294.18919373 C395.71002472 294.64023994 390.53689471 295.387858 385.2827301 296.53709412 C381.34681677 297.33524254 377.36723166 297.71979845 373.375 298.125 C372.56160156 298.21136719 371.74820312 298.29773438 370.91015625 298.38671875 C368.94053614 298.59526676 366.97032756 298.79824533 365 299 C365 297.35 365 295.7 365 294 C365.66 294 366.32 294 367 294 C367.33 290.7 367.66 287.4 368 284 C368.8971875 284.03480469 369.794375 284.06960938 370.71875 284.10546875 C378.27597263 284.26941676 385.15330118 283.81803309 392.59594727 282.28027344 C398.18584753 281.12738577 403.78595057 280.23396179 409.4375 279.4375 C410.76322021 279.25054565 410.76322021 279.25054565 412.11572266 279.05981445 C418.59446307 278.1630598 425.08229009 277.35999053 431.58374023 276.64624023 C435.10021365 276.25522708 438.54313456 275.75785127 442 275 C438.95236104 272.96824069 436.77033078 272.25955012 433.25 271.375 C432.24453125 271.11460937 431.2390625 270.85421875 430.203125 270.5859375 C426.73891621 269.95224077 423.51454267 269.96099575 420 270 C420.04451032 265.05551758 420.11470943 260.11226916 420.20751953 255.16845703 C420.23553914 253.49082321 420.25684709 251.81306204 420.27099609 250.13525391 C420.46199228 228.75641451 420.46199228 228.75641451 427.19140625 221.703125 C427.97386719 221.22359375 428.75632812 220.7440625 429.5625 220.25 C430.43003906 219.7034375 431.29757812 219.156875 432.19140625 218.59375 C436.00195521 216.43143571 439.83999361 214.33659414 443.75 212.359375 C446.27131191 211.05379616 446.27131191 211.05379616 448 208 C439.68383188 208.58359075 431.98540674 210.73799414 424 213 C424 213.66 424 214.32 424 215 C422.845 215.061875 421.69 215.12375 420.5 215.1875 C406.95501443 216.75608988 394.87213464 222.66424735 383 229 C380.43106162 230.28446919 378.23423663 230.32977144 375.375 230.5625 C374.37210937 230.64628906 373.36921875 230.73007813 372.3359375 230.81640625 C371.56507813 230.87699219 370.79421875 230.93757812 370 231 C370 229.68 370 228.36 370 227 C369.34 227 368.68 227 368 227 C368 223.37 368 219.74 368 216 C369.629375 215.87625 371.25875 215.7525 372.9375 215.625 C382.54116353 214.72849432 392.09893459 212.76413474 400.3515625 207.5 C403.53097335 205.69927173 406.59437506 204.86325834 410.125 203.9375 C413.96392879 202.927042 416.68800221 202.20799853 420 200 C422.36171199 199.45912831 424.73996425 198.98891548 427.125 198.5625 C431.39247467 197.77104235 435.54299602 196.94540446 439.625 195.4375 C445.24209239 193.40170371 451.10832229 192.81315502 457 192 C458.98 191.67 460.96 191.34 463 191 C463 185.39 463 179.78 463 174 C427.03 173.67 391.06 173.34 354 173 C345.67611468 164.67611468 340.23214877 156.13076596 334.90917969 145.75341797 C333.0259732 142.12151975 331.00302731 138.56658765 329 135 C330.01578125 135.59167969 331.0315625 136.18335938 332.078125 136.79296875 C343.6489896 143.46379672 355.24804603 148.45742158 367.8671875 152.8671875 C370.28877201 153.7428228 372.60368597 154.67205002 374.9375 155.75 C378.30256135 157.12349443 381.4053643 157.56864372 385 158 C385.33 158.33 385.66 158.66 386 159 C387.39812257 159.28318283 388.80708911 159.5134386 390.21875 159.71875 C391.06824219 159.84636719 391.91773438 159.97398437 392.79296875 160.10546875 C393.68628906 160.23566406 394.57960938 160.36585938 395.5 160.5 C397.26096985 160.75664929 399.02142337 161.01687544 400.78125 161.28125 C401.56564453 161.39533203 402.35003906 161.50941406 403.15820312 161.62695312 C405 162 405 162 406 163 C410.12498468 163.02938023 414.24994191 163.04692535 418.375 163.0625 C420.10943359 163.07506836 420.10943359 163.07506836 421.87890625 163.08789062 C423.59013672 163.09272461 423.59013672 163.09272461 425.3359375 163.09765625 C426.37282715 163.10289307 427.4097168 163.10812988 428.47802734 163.11352539 C432.99826111 162.96782258 437.4998633 162.45001367 442 162 C446.16789202 135.65228225 446.16789202 135.65228225 439 114 C436.24165511 112.33355305 434.19587533 111.74753412 430.98834229 111.7215271 C429.80631981 111.70478188 429.80631981 111.70478188 428.60041809 111.68769836 C427.31756172 111.68445808 427.31756172 111.68445808 426.00878906 111.68115234 C425.10112289 111.67110672 424.19345673 111.6610611 423.25828552 111.65071106 C420.2607384 111.61984179 417.26328076 111.60283343 414.265625 111.5859375 C412.1862511 111.56722888 410.10688481 111.54765569 408.02752686 111.5272522 C402.55642178 111.47589279 397.08529208 111.43628737 391.61407471 111.39910889 C386.03041473 111.35909318 380.44685752 111.30798972 374.86328125 111.2578125 C363.90891913 111.16100801 352.95451472 111.07764235 342 111 C342 102.42 342 93.84 342 85 C347.01792516 85.07416913 352.03412241 85.1571459 357.05126953 85.26245117 C358.75625512 85.29560636 360.46134798 85.32366737 362.16650391 85.34643555 C364.62448634 85.38015568 367.08149406 85.43247794 369.5390625 85.48828125 C370.29555084 85.49467117 371.05203918 85.5010611 371.83145142 85.50764465 C376.55631383 85.63748704 379.9497896 86.31979212 384 89 C385.13378906 91.06958008 385.13378906 91.06958008 386 93 C387.74918281 94.15647949 387.74918281 94.15647949 389.859375 94.88671875 C390.63861328 95.18505615 391.41785156 95.48339355 392.22070312 95.79077148 C393.05537109 96.08669189 393.89003906 96.3826123 394.75 96.6875 C395.60529297 96.9956665 396.46058594 97.30383301 397.34179688 97.62133789 C404.66212833 100.12829134 411.23802686 101.05721356 419 101 C420.09054687 101.01289062 421.18109375 101.02578125 422.3046875 101.0390625 C424.87171254 101.05865811 427.43348788 101.04714002 430 101 C430 101.66 430 102.32 430 103 C440.89 103 451.78 103 463 103 C463 96.07 463 89.14 463 82 C408.78960985 81.21301082 354.59183542 80.85521467 300.37595742 80.89646223 C290.3758843 80.90385575 280.37581243 80.90513309 270.37573697 80.90625793 C252.56355854 80.90841028 234.75138486 80.91496265 216.93920898 80.92456055 C199.7061363 80.93383634 182.47306494 80.94086639 165.23999023 80.94506836 C163.62835824 80.94546244 163.62835824 80.94546244 161.98416803 80.94586449 C156.59047655 80.94717017 151.19678505 80.94843372 145.80309355 80.94967639 C74.71032439 74.00359237 74.71032439 74.00359237 11 83 Z " transform="translate(0,0)" style="fill: #FAFAFA;"/><path d="M0 0 C0.77875992 -0.00696899 1.55751984 -0.01393799 2.35987854 -0.02111816 C4.85976618 -0.0384181 7.35943001 -0.04483714 9.859375 -0.046875 C10.7098642 -0.04788208 11.56035339 -0.04888916 12.43661499 -0.04992676 C22.14782143 -0.04213258 31.79809761 -0.00409099 41.421875 1.453125 C42.15245117 1.56237305 42.88302734 1.67162109 43.63574219 1.78417969 C49.02329351 2.75931368 53.67902667 4.88383965 58.609375 7.203125 C60.0483343 7.82857669 61.48973096 8.44845283 62.93359375 9.0625 C72.56100564 13.2163986 81.60732465 17.82674361 90.609375 23.203125 C96.03225433 26.34617989 96.03225433 26.34617989 101.609375 29.203125 C101.32707031 29.739375 101.04476562 30.275625 100.75390625 30.828125 C98.95690475 34.55705645 97.57815885 38.45552674 96.12109375 42.328125 C94.40043034 45.60049779 92.57495698 47.05144091 89.609375 49.203125 C88.23569155 50.83669451 86.88999985 52.4956252 85.609375 54.203125 C84.949375 54.203125 84.289375 54.203125 83.609375 54.203125 C86.084375 57.668125 86.084375 57.668125 88.609375 61.203125 C93.43031849 59.99788913 94.11427199 58.70099067 97.046875 54.828125 C99.97297952 50.97075591 102.3597791 48.51788833 106.609375 46.203125 C107.97921698 44.90732853 109.3244799 43.58319751 110.609375 42.203125 C121.22906056 46.83043897 129.61787205 62.23840299 134.609375 72.203125 C134.609375 73.193125 134.609375 74.183125 134.609375 75.203125 C135.269375 75.203125 135.929375 75.203125 136.609375 75.203125 C136.94710937 76.17894531 137.28484375 77.15476562 137.6328125 78.16015625 C138.08311325 79.44538963 138.53364626 80.73054165 138.984375 82.015625 C139.20609375 82.65822266 139.4278125 83.30082031 139.65625 83.96289062 C140.7333635 87.01999217 141.79999361 89.48905291 143.609375 92.203125 C144.26367187 94.11328125 144.26367187 94.11328125 144.828125 96.265625 C145.03735596 97.05710937 145.24658691 97.84859375 145.4621582 98.6640625 C145.67573975 99.50195312 145.88932129 100.33984375 146.109375 101.203125 C146.33004639 102.06164062 146.55071777 102.92015625 146.77807617 103.8046875 C149.33480024 113.89065447 150.609375 122.60553654 150.609375 133.203125 C138.399375 133.203125 126.189375 133.203125 113.609375 133.203125 C113.609375 136.503125 113.609375 139.803125 113.609375 143.203125 C125.819375 143.203125 138.029375 143.203125 150.609375 143.203125 C149.609375 160.203125 149.609375 160.203125 146.609375 167.203125 C145.94108603 169.31380944 145.94108603 169.31380944 145.546875 171.2109375 C145.38960938 171.88769531 145.23234375 172.56445312 145.0703125 173.26171875 C144.76136054 174.64676611 144.45408619 176.03218868 144.1484375 177.41796875 C143.18366543 181.55383589 141.84465014 184.62553257 139.609375 188.203125 C138.81952712 190.418486 138.07218502 192.64928926 137.359375 194.890625 C135.04006603 201.58228684 131.90126195 206.63302475 127.609375 212.203125 C126.990625 213.193125 126.371875 214.183125 125.734375 215.203125 C122.97116327 219.1041298 119.77989679 222.52629295 116.53515625 226.03125 C114.5784784 228.04926302 114.5784784 228.04926302 113.609375 230.203125 C112.949375 230.203125 112.289375 230.203125 111.609375 230.203125 C111.609375 229.213125 111.609375 228.223125 111.609375 227.203125 C108.969375 227.203125 106.329375 227.203125 103.609375 227.203125 C103.196875 226.53925781 102.784375 225.87539063 102.359375 225.19140625 C98.48085636 219.26108199 94.99369479 215.35382827 88.609375 212.203125 C87.289375 212.533125 85.969375 212.863125 84.609375 213.203125 C84.609375 213.863125 84.609375 214.523125 84.609375 215.203125 C85.599375 215.863125 86.589375 216.523125 87.609375 217.203125 C87.609375 219.513125 87.609375 221.823125 87.609375 224.203125 C88.19332031 224.30882812 88.77726563 224.41453125 89.37890625 224.5234375 C91.9246964 225.29921243 93.29942855 226.33631703 95.296875 228.078125 C95.89886719 228.59117187 96.50085938 229.10421875 97.12109375 229.6328125 C99.77440222 232.43236632 99.72488434 235.23298023 99.671875 238.890625 C99.66285156 239.69886719 99.65382813 240.50710938 99.64453125 241.33984375 C99.609375 243.203125 99.609375 243.203125 98.109375 244.953125 C95.46078835 247.33685298 93.04031587 248.57224992 89.8046875 249.98046875 C87.38632135 251.22607926 87.38632135 251.22607926 84.8359375 253.640625 C81.48083402 256.51318845 78.0047839 257.85920892 73.859375 259.265625 C72.43064888 259.77378268 71.00226197 260.28289511 69.57421875 260.79296875 C68.54723877 261.15430908 68.54723877 261.15430908 67.49951172 261.52294922 C65.1079725 262.38355736 62.76605089 263.34657352 60.421875 264.328125 C51.20852593 268.01346463 42.63621086 271.01794688 32.609375 270.203125 C32.609375 270.863125 32.609375 271.523125 32.609375 272.203125 C28.979375 272.203125 25.349375 272.203125 21.609375 272.203125 C21.609375 261.643125 21.609375 251.083125 21.609375 240.203125 C18.309375 240.203125 15.009375 240.203125 11.609375 240.203125 C11.609375 250.763125 11.609375 261.323125 11.609375 272.203125 C-3.71020322 272.203125 -21.46150965 268.87001035 -35.015625 261.46875 C-37.50483784 260.14226158 -40.03428346 259.09149854 -42.640625 258.015625 C-52.7804254 253.44983419 -61.91732242 246.38817068 -69.390625 238.203125 C-66.41871025 229.51464482 -62.91274671 222.46418585 -54.390625 218.203125 C-53.895625 215.233125 -53.895625 215.233125 -53.390625 212.203125 C-62.63578228 212.92823538 -66.83103309 218.46989446 -72.953125 224.890625 C-75.12703793 226.95305522 -76.72832321 227.97047364 -79.390625 229.203125 C-86.6342223 222.43108195 -92.36835146 215.8372173 -97.390625 207.203125 C-98.28297257 205.82586026 -99.178508 204.45065245 -100.078125 203.078125 C-102.63441551 198.96801085 -104.55076393 194.67242314 -106.390625 190.203125 C-106.71933594 189.4090625 -107.04804687 188.615 -107.38671875 187.796875 C-115.59472464 167.61220681 -115.59472464 167.61220681 -115.390625 157.203125 C-116.050625 157.203125 -116.710625 157.203125 -117.390625 157.203125 C-117.390625 152.913125 -117.390625 148.623125 -117.390625 144.203125 C-105.180625 144.203125 -92.970625 144.203125 -80.390625 144.203125 C-80.390625 141.233125 -80.390625 138.263125 -80.390625 135.203125 C-92.600625 135.203125 -104.810625 135.203125 -117.390625 135.203125 C-117.390625 116.73403409 -117.390625 116.73403409 -115.578125 108.765625 C-115.41248047 107.95931641 -115.24683594 107.15300781 -115.07617188 106.32226562 C-113.89949707 100.80299473 -112.27668989 95.51805459 -110.390625 90.203125 C-110.01421875 89.12546875 -109.6378125 88.0478125 -109.25 86.9375 C-103.19080485 70.63741163 -94.38064527 55.8309123 -82.390625 43.203125 C-72.74304287 44.97292754 -64.95628348 55.41656586 -58.390625 62.203125 C-57.070625 62.203125 -55.750625 62.203125 -54.390625 62.203125 C-53.77225261 56.62930265 -55.67888625 53.59626615 -58.953125 49.328125 C-59.40478027 48.7182373 -59.85643555 48.10834961 -60.32177734 47.47998047 C-63.78428877 42.85634327 -67.43760363 38.41793587 -71.390625 34.203125 C-69.81289878 30.22613465 -67.05279914 27.6531383 -63.953125 24.828125 C-63.42033936 24.34206787 -62.88755371 23.85601074 -62.33862305 23.35522461 C-57.46342667 19.04230136 -52.29997036 15.93876748 -46.390625 13.203125 C-45.63136719 12.84992188 -44.87210937 12.49671875 -44.08984375 12.1328125 C-42.63419009 11.47608776 -41.17189174 10.83387991 -39.703125 10.20703125 C-38.02170705 9.47709136 -36.35679974 8.70875217 -34.703125 7.91796875 C-28.93346757 5.16936806 -23.66084522 3.41671601 -17.390625 2.203125 C-17.060625 1.873125 -16.730625 1.543125 -16.390625 1.203125 C-10.90575906 0.35079833 -5.54374205 0.03350506 0 0 Z " transform="translate(192.390625,115.796875)" style="fill: #FBFBFB;"/><path d="M0 0 C1.65213952 -0.00202612 3.30427785 -0.00536757 4.95641237 -0.00990558 C9.48151963 -0.01853188 14.00642073 -0.00850851 18.53151 0.00463676 C23.41692049 0.01555284 28.30231234 0.00911902 33.18772888 0.00485229 C42.75042094 -0.00077637 52.3130327 0.0095238 61.87571108 0.02514026 C73.00648057 0.04268235 84.13723452 0.04409954 95.26801569 0.04475585 C115.11998375 0.04644322 134.97191522 0.06225215 154.8238678 0.08624268 C174.10121464 0.10952198 193.37853827 0.12367054 212.65589905 0.1272583 C214.43837292 0.12759245 214.43837292 0.12759245 216.25685637 0.12793335 C218.6506388 0.12837594 221.04442124 0.12881797 223.43820367 0.12925942 C224.61894625 0.12947899 225.79968884 0.12969855 227.01621151 0.12992477 C228.7827677 0.13024875 228.7827677 0.13024875 230.5850119 0.13057928 C248.94228347 0.13427622 267.2995513 0.14563416 285.65681876 0.15805517 C292.31737958 0.16249508 298.97794004 0.16593139 305.63850176 0.1686773 C316.19699115 0.17310234 326.75546668 0.18085052 337.31394731 0.19545171 C342.14047021 0.20207437 346.96698083 0.20712715 351.79350853 0.20791245 C356.20529265 0.20869591 360.61704565 0.21406835 365.0288201 0.22323194 C366.63086231 0.22575248 368.23290823 0.22656825 369.83495211 0.22557315 C372.00043774 0.2244872 374.16582411 0.22946294 376.33129787 0.23606491 C377.53772707 0.23731141 378.74415627 0.23855791 379.98714393 0.23984218 C382.78358459 0.36749268 382.78358459 0.36749268 384.78358459 1.36749268 C385.47252849 14.26605337 385.47252849 14.26605337 382.90858459 18.05499268 C381.56262208 19.51971659 380.19018177 20.9608955 378.78358459 22.36749268 C240.18358459 22.36749268 101.58358459 22.36749268 -41.21641541 22.36749268 C-37.75819607 13.72194435 -32.05046606 6.57141616 -23.51870149 2.57157445 C-15.89358219 -0.42727059 -8.05463871 -0.04392233 0 0 Z " transform="translate(58.21641540527344,49.63250732421875)" style="fill: #090909;"/><path d="M0 0 C6.06835166 4.47902146 9.79620723 9.9314595 13.37109375 16.53125 C15.22983893 19.34834101 17.18608488 20.97309741 19.875 23 C23.51411999 25.81755311 26.82654291 28.65500469 30 32 C33.33042175 35.49248607 36.54268693 38.8023771 40.5625 41.5 C43.13068695 43.24066005 44.98556109 45.02659167 46.9375 47.4375 C49.59746895 50.71130794 52.50947287 52.96397781 55.9296875 55.40234375 C58.89453297 57.69030941 61.38844047 60.3680151 63.98828125 63.0546875 C65.95451269 64.95601421 67.96671523 66.53336814 70.1875 68.125 C77.19333567 73.23884874 81.82872259 79.99720329 83.5 88.5625 C81.43810621 98.6142322 73.9726057 104.40729567 65.875 110 C62.08389385 112.27618622 59.3562366 112.45377465 55 112 C55 111.34 55 110.68 55 110 C54.030625 109.95875 53.06125 109.9175 52.0625 109.875 C45.8792641 108.92565469 41.22597881 105.48921697 37.1171875 100.89453125 C31.76210573 93.34218498 29.29343898 84.63717818 26.578125 75.890625 C25.65014133 72.91496308 24.6503273 70.05022601 23.390625 67.19921875 C22.13718407 64.31560044 21.25954372 61.60519595 20.5 58.5625 C18.74239912 51.89448842 16.30712755 45.71990798 13.625 39.375 C11.19022186 33.60803305 9.12111931 27.76134885 7.11328125 21.8359375 C6.18679047 18.92024392 6.18679047 18.92024392 4 17 C3.69140625 15.01171875 3.69140625 15.01171875 3.5625 12.6875 C3.21759569 8.70832621 2.26017221 6.34112414 0 3 C0 2.01 0 1.02 0 0 Z " transform="translate(151,163)" style="fill: #050505;"/><path d="M0 0 C1.93057251 -0.03335449 1.93057251 -0.03335449 3.90014648 -0.06738281 C5.10485596 -0.06448242 6.30956543 -0.06158203 7.55078125 -0.05859375 C8.61594971 -0.06044678 9.68111816 -0.0622998 10.77856445 -0.06420898 C14.35763152 0.55307871 16.0610259 1.99402168 18.6875 4.4375 C18.6875 7.0775 18.6875 9.7175 18.6875 12.4375 C13.91131734 16.33385954 11.88348355 17.57219529 5.6875 17.4375 C5.6875 18.0975 5.6875 18.7575 5.6875 19.4375 C6.3475 19.4375 7.0075 19.4375 7.6875 19.4375 C7.6875 20.4275 7.6875 21.4175 7.6875 22.4375 C6.0375 22.1075 4.3875 21.7775 2.6875 21.4375 C2.6875 20.7775 2.6875 20.1175 2.6875 19.4375 C1.44613281 19.59734375 0.20476562 19.7571875 -1.07421875 19.921875 C-9.73066922 20.77976255 -18.43463435 20.67827116 -27.125 20.6875 C-28.03758575 20.68950409 -28.95017151 20.69150818 -29.89041138 20.693573 C-62.7649098 20.7112951 -62.7649098 20.7112951 -71.3125 16.4375 C-70.9825 15.4475 -70.6525 14.4575 -70.3125 13.4375 C-65.98872352 11.64340188 -61.65106008 9.89432147 -57.28613281 8.20263672 C-55.63271537 7.56164089 -53.98376289 6.9091439 -52.3359375 6.25390625 C-35.81963513 0.40722621 -17.36213651 0.17055196 0 0 Z " transform="translate(444.3125,391.5625)" style="fill: #0C0C0D;"/><path d="M0 0 C3.12981912 0.33533776 4.00061159 1.00066401 6.1875 3.375 C9.7681798 8.56081212 9.50104988 13.90247775 9 20 C8.17297432 22.91234812 7.18762156 25.81237844 5 28 C-1 28 -1 28 -4 25 C-4.10845027 21.95736733 -4.18752063 18.91863796 -4.25 15.875 C-4.28351563 15.0190625 -4.31703125 14.163125 -4.3515625 13.28125 C-4.44043755 7.50437155 -3.71957126 4.46641431 0 0 Z " transform="translate(207,119)" style="fill: #141414;"/><path d="M0 0 C12.21 0 24.42 0 37 0 C37 0.33 37 0.66 37 1 C31.72 1 26.44 1 21 1 C21 3.64 21 6.28 21 9 C26.61 9 32.22 9 38 9 C38 10.65 38 12.3 38 14 C37.505 12.02 37.505 12.02 37 10 C24.79 10 12.58 10 0 10 C0 6.7 0 3.4 0 0 Z " transform="translate(306,249)" style="fill: #292929;"/></svg>